<?xml version="1.0" standalone="no"?>
<!DOCTYPE svg PUBLIC "-//W3C//DTD SVG 20010904//EN"
 "http://www.w3.org/TR/2001/REC-SVG-20010904/DTD/svg10.dtd">
<svg version="1.0" xmlns="http://www.w3.org/2000/svg"
 width="320.000000pt" height="320.000000pt" viewBox="0 0 320.000000 320.000000"
 preserveAspectRatio="xMidYMid meet">

<g transform="translate(0.000000,320.000000) scale(0.100000,-0.100000)"
fill="#000000" stroke="none">
<path d="M1340 3130 c-573 -101 -1038 -512 -1215 -1072 -81 -258 -87 -590 -14
-858 107 -394 380 -744 738 -944 167 -94 361 -160 545 -185 100 -14 322 -14
422 0 460 64 874 339 1119 742 286 472 287 1101 3 1577 -241 403 -636 671
-1098 745 -132 21 -366 19 -500 -5z m-556 -1241 c4 -4 -15 -21 -45 -37 l-52
-31 -36 19 c-79 41 -80 43 -20 77 l54 31 45 -26 c25 -14 49 -29 54 -33z m974
-91 c2 -43 5 -78 7 -78 2 0 23 10 45 21 87 46 170 2 191 -101 26 -126 -49
-226 -154 -206 -19 3 -44 16 -56 27 l-22 21 -6 -21 c-6 -25 -39 -37 -58 -21
-12 10 -15 50 -15 214 0 212 4 230 45 224 18 -3 20 -12 23 -80z m376 76 c24
-9 21 -61 -4 -69 -39 -12 -66 35 -38 63 14 14 20 14 42 6z m764 -6 c17 -17 17
-409 0 -426 -18 -18 -46 -14 -58 7 -6 12 -10 99 -10 213 0 199 4 218 40 218 9
0 21 -5 28 -12z m-568 -17 c5 -11 10 -38 10 -60 0 -36 3 -40 28 -43 39 -4 38
-42 -1 -46 l-28 -3 3 -102 3 -102 40 -5 c79 -10 45 -60 -41 -60 -24 0 -43 8
-59 25 -23 23 -25 31 -25 130 0 103 -1 106 -25 115 -14 5 -25 16 -25 25 0 9
11 20 25 25 21 8 25 16 25 53 0 24 5 48 12 55 18 18 46 14 58 -7z m-1332 -110
c45 -23 72 -67 72 -115 0 -43 -6 -45 -135 -49 -89 -2 -90 -2 -87 -27 3 -33 46
-70 81 -70 16 0 44 13 66 30 41 33 63 38 71 16 9 -24 -16 -57 -59 -77 -104
-47 -209 -3 -236 98 -39 145 96 261 227 194z m209 -1 c3 -11 6 -20 7 -20 1 0
19 9 41 20 56 28 113 23 137 -14 4 -7 22 -3 51 12 52 26 78 27 116 7 39 -20
51 -61 51 -177 0 -105 -9 -138 -38 -138 -35 0 -42 21 -42 126 0 84 -3 106 -18
124 -14 18 -25 21 -45 16 -39 -9 -50 -40 -55 -153 -5 -106 -12 -121 -52 -108
-15 5 -18 22 -22 119 -4 121 -13 146 -53 146 -45 0 -60 -33 -65 -147 -4 -87
-8 -108 -22 -117 -13 -8 -23 -8 -35 0 -16 10 -18 31 -21 154 -2 96 1 147 9
156 17 21 50 17 56 -6z m941 -142 c2 -151 2 -157 -18 -163 -43 -14 -50 7 -50
159 0 149 6 170 45 164 19 -3 20 -11 23 -160z m550 135 c40 -28 67 -89 56
-122 -9 -25 -12 -26 -109 -29 -55 -1 -104 -7 -109 -12 -15 -15 14 -67 45 -80
36 -15 69 -7 108 26 53 44 88 2 38 -44 -73 -68 -213 -48 -258 38 -34 63 -20
170 29 213 45 41 151 46 200 10z m-1863 -400 c9 -20 18 -48 21 -62 5 -24 4
-25 -9 -8 -18 22 -53 22 -66 0 -5 -10 -12 -15 -16 -12 -6 7 40 119 49 119 3 0
13 -17 21 -37z m166 27 c10 -6 19 -18 19 -27 0 -14 -2 -14 -19 1 -39 35 -85
-1 -63 -48 13 -30 37 -33 64 -9 10 9 18 12 18 7 -1 -40 -63 -50 -92 -14 -24
30 -23 46 7 75 27 28 37 30 66 15z m94 -27 c9 -20 18 -48 21 -62 5 -24 4 -25
-9 -8 -18 22 -53 22 -66 0 -5 -10 -12 -15 -16 -12 -6 7 40 119 49 119 3 0 13
-17 21 -37z m116 27 c22 -13 25 -48 4 -56 -12 -5 -12 -9 2 -30 8 -13 11 -24 5
-24 -5 0 -17 11 -26 25 -9 14 -21 25 -26 25 -6 0 -10 -11 -10 -25 0 -14 -4
-25 -10 -25 -6 0 -10 27 -10 60 0 58 1 60 26 60 14 0 34 -5 45 -10z m50 -48
l0 -47 24 53 c13 28 26 52 29 52 7 0 35 -66 42 -99 5 -24 4 -25 -9 -8 -17 21
-56 22 -63 2 -4 -8 -15 -15 -25 -15 -17 0 -19 8 -19 61 0 37 4 58 10 54 6 -3
10 -27 11 -53z m176 47 c31 -12 43 -26 43 -53 0 -31 -30 -56 -67 -56 l-33 0 0
60 c0 65 5 69 57 49z m174 1 c10 -6 19 -18 19 -27 0 -15 -2 -15 -18 0 -39 35
-83 7 -66 -41 7 -19 16 -27 34 -27 33 0 40 32 8 38 -17 3 -15 5 10 6 29 1 32
-2 32 -27 0 -29 -5 -32 -55 -33 -22 0 -55 35 -55 58 0 16 44 63 60 63 6 0 20
-5 31 -10z m110 0 c10 -6 19 -17 19 -25 0 -9 8 -6 25 10 13 14 31 25 40 25 23
0 55 -37 55 -63 0 -63 -75 -83 -108 -29 -9 16 -23 27 -29 25 -9 -3 -8 -11 3
-29 9 -13 12 -24 6 -24 -5 0 -17 11 -26 25 -9 14 -21 25 -26 25 -6 0 -10 -11
-10 -25 0 -14 -4 -25 -10 -25 -6 0 -10 27 -10 60 0 58 1 60 26 60 14 0 34 -5
45 -10z m181 -50 c2 -37 6 -45 23 -45 17 0 21 8 23 45 5 64 22 76 22 15 0 -61
-10 -77 -45 -77 -35 0 -45 16 -45 77 0 61 17 49 22 -15z m171 41 c5 -5 6 -18
2 -30 -4 -15 -15 -21 -36 -21 -24 0 -29 -4 -29 -25 0 -14 -4 -25 -10 -25 -6 0
-10 27 -10 61 l0 62 37 -6 c20 -4 40 -10 46 -16z m138 9 c10 -6 19 -18 19 -27
0 -14 -2 -14 -19 1 -39 35 -85 -1 -63 -48 13 -30 37 -33 64 -9 10 9 18 12 18
7 -1 -40 -63 -50 -92 -14 -24 30 -23 46 7 75 27 28 37 30 66 15z m119 -10 c39
-39 17 -102 -35 -102 -30 0 -65 32 -65 59 0 19 45 63 65 63 8 0 24 -9 35 -20z
m71 -30 l22 -50 23 51 c13 27 28 48 34 44 13 -8 13 -115 0 -115 -5 0 -10 17
-11 38 l-1 37 -16 -37 c-21 -46 -34 -48 -55 -5 l-16 32 0 -32 c-2 -60 -21 -34
-21 27 0 33 4 60 10 60 5 0 19 -23 31 -50z m173 41 c13 -6 26 -18 29 -28 3
-14 6 -12 11 10 11 37 23 34 41 -10 23 -55 29 -83 16 -83 -6 0 -11 7 -11 15 0
9 -9 15 -25 15 -14 0 -28 -7 -31 -15 -4 -8 -11 -15 -16 -15 -6 0 -7 7 -4 15 3
8 8 21 11 28 4 10 -4 12 -30 9 -29 -4 -35 -8 -35 -28 0 -13 -4 -24 -10 -24 -6
0 -10 27 -10 60 0 65 8 72 64 51z m170 -33 l25 -43 1 37 c0 20 5 40 10 43 6 4
10 -17 10 -54 0 -34 -4 -61 -9 -61 -5 0 -20 17 -33 38 l-23 37 -3 -37 c-5 -61
-22 -44 -22 22 0 33 4 60 9 60 5 0 21 -19 35 -42z m132 18 c29 35 33 11 4 -26
-11 -14 -20 -35 -20 -47 0 -13 -4 -23 -10 -23 -5 0 -10 10 -10 23 0 12 -9 36
-20 52 -28 42 -24 56 6 21 l26 -29 24 29z"/>
<path d="M1800 1680 c-25 -25 -34 -61 -27 -113 14 -105 136 -101 154 6 11 71
-22 127 -77 127 -17 0 -39 -9 -50 -20z"/>
<path d="M876 1688 c-14 -13 -26 -32 -28 -43 -3 -18 3 -20 72 -20 69 0 75 2
72 20 -4 26 -47 65 -72 65 -10 0 -30 -10 -44 -22z"/>
<path d="M2577 1703 c-17 -4 -47 -51 -47 -73 0 -6 29 -10 75 -10 67 0 75 2 75
19 0 42 -56 77 -103 64z"/>
<path d="M805 1320 c-8 -13 -1 -24 14 -19 6 3 7 10 2 18 -6 10 -10 10 -16 1z"/>
<path d="M1065 1320 c-8 -13 -1 -24 14 -19 6 3 7 10 2 18 -6 10 -10 10 -16 1z"/>
<path d="M1160 1330 c0 -15 7 -20 25 -20 18 0 25 5 25 20 0 15 -7 20 -25 20
-18 0 -25 -5 -25 -20z"/>
<path d="M1305 1320 c-8 -13 -1 -24 14 -19 6 3 7 10 2 18 -6 10 -10 10 -16 1z"/>
<path d="M1400 1305 c0 -37 3 -45 18 -45 24 0 42 19 42 45 0 26 -18 45 -42 45
-15 0 -18 -8 -18 -45z"/>
<path d="M1670 1330 c0 -15 7 -20 25 -20 18 0 25 5 25 20 0 15 -7 20 -25 20
-18 0 -25 -5 -25 -20z"/>
<path d="M1770 1334 c-20 -24 -1 -69 29 -69 30 0 46 24 37 58 -7 31 -45 37
-66 11z"/>
<path d="M2010 1330 c0 -16 5 -21 23 -18 12 2 22 10 22 18 0 8 -10 16 -22 18
-18 3 -23 -2 -23 -18z"/>
<path d="M2260 1334 c-20 -24 -1 -69 29 -69 30 0 46 24 37 58 -7 31 -45 37
-66 11z"/>
<path d="M2530 1330 c0 -16 5 -21 23 -18 12 2 22 10 22 18 0 8 -10 16 -22 18
-18 3 -23 -2 -23 -18z"/>
<path d="M2625 1320 c-8 -13 -1 -24 14 -19 6 3 7 10 2 18 -6 10 -10 10 -16 1z"/>
</g>
</svg>
